<svg xmlns="http://www.w3.org/2000/svg" width="459.25" height="125.531" viewBox="0 0 459.25 125.531">
  <defs>
    <style>
      .cls-1 {
        fill: #f4b5b5;
        fill-rule: evenodd;
      }
    </style>
  </defs>
  <path id="Thankyou_" data-name="Thankyou!" class="cls-1" d="M4486.37,746.706q-25.62-7.26-46.12-6.833-16.095.286-27.34,5.267c-0.19.1-1.13,0.569-2.84,1.423a31.7,31.7,0,0,0-5.7,3.844q-8.685,6.976-8.97,15.517-0.285,7.121,5.98,12.955a28.847,28.847,0,0,0,7.41,4.982,53.8,53.8,0,0,0,9.82,3.559,67.248,67.248,0,0,0,12.31,1.78,103.077,103.077,0,0,0,13.74-.214,21.172,21.172,0,0,0,1.35,3.417,10.321,10.321,0,0,0,3.92,4.128,18.135,18.135,0,0,0,10.67,2.99,33.385,33.385,0,0,0,5.63-.5c1.94-.332,4.06-0.783,6.33-1.353a1.073,1.073,0,0,0,.71-1.423,1.035,1.035,0,0,0-1.42-.855,38.7,38.7,0,0,1-13.24,1.709,30.824,30.824,0,0,1-3.98-.783,10.233,10.233,0,0,1-3.42-1.637,10.6,10.6,0,0,1-3.06-3.2,11.542,11.542,0,0,1-1.21-2.776c2.08-.189,4.41-0.5,6.97-0.926a54.856,54.856,0,0,0,7.48-1.779,36.646,36.646,0,0,0,6.62-2.776,11.609,11.609,0,0,0,4.41-3.915,7.175,7.175,0,0,0,.57-6.549q-0.15-.283-0.78-1.352a4.8,4.8,0,0,0-2.49-1.779q-4.71-2.136-13.39,1.708a21.2,21.2,0,0,0-8.96,6.833q-3.135,4.558-2.99,8.542a98.194,98.194,0,0,1-13.39.213,61.461,61.461,0,0,1-11.81-1.779,47.8,47.8,0,0,1-9.25-3.275,27.085,27.085,0,0,1-6.98-4.7q-5.55-4.982-5.27-11.1,0.285-7.687,8.12-13.809a45.889,45.889,0,0,1,5.41-3.7c0.85-.473,1.7-0.9,2.56-1.281v-0.142q10.68-4.7,26.34-4.983a77.823,77.823,0,0,1,15.87,1.353q7.905,1.494,15.8,3.63t15.94,4.342a148.573,148.573,0,0,0,16.16,3.488q-0.285,2.562-.85,6.762c-0.38,2.8-.79,6-1.21,9.609s-0.83,7.523-1.21,11.744-0.71,8.52-1,12.884q-1.275,19.932,0,33.027,1.56,16.656,7.4,21.354a8.136,8.136,0,0,0,5.27,1.85,13.211,13.211,0,0,0,1.85-.142,7.931,7.931,0,0,0,1.99-.569,0.977,0.977,0,0,0,.72-1.424,0.882,0.882,0,0,0-1.43-.712,8.988,8.988,0,0,1-3.41.57,4.2,4.2,0,0,1-2.99-1.424q-2.43-2.562-3.42-8.684a87.856,87.856,0,0,1-1-14.093q0-7.971.79-16.87t1.78-17.154q0.99-8.255,1.92-14.948,0.915-6.689,1.49-10.249a30.4,30.4,0,0,0,.36-6.549,12.465,12.465,0,0,0-.93-4.128,71.683,71.683,0,0,0,11.46.213,95.472,95.472,0,0,0,10.04-1.139,68.46,68.46,0,0,0,8.11-1.85c2.37-.712,4.23-1.3,5.56-1.78a26.885,26.885,0,0,0,2.84-1.067,22.986,22.986,0,0,0,3.7-1.993,13.835,13.835,0,0,0,3.28-2.99,7,7,0,0,0,1.56-4.057,11.387,11.387,0,0,0-.21-1.424,4.454,4.454,0,0,0-1.35-2.277q-3.135-2.847-10.39-1.851c-0.86,0-1.19.38-1,1.139a0.9,0.9,0,0,0,1.28,1,17.242,17.242,0,0,1,5.77.071,5.974,5.974,0,0,1,2.63,1.21,2.994,2.994,0,0,1,.85,1.282,4.127,4.127,0,0,1,.15.711,5.474,5.474,0,0,1-1.36,3.132,12.923,12.923,0,0,1-2.84,2.492,16.606,16.606,0,0,1-3.42,1.708c-1.19.427-2.11,0.736-2.78,0.925a64.985,64.985,0,0,1-7.47,1.709q-3.495.57-6.19,0.854a44.436,44.436,0,0,1-5.98.427q-17.085.286-37.87-5.552h0Zm-15.94,31.319q-1.86,2.99-8.05,5.2a68.9,68.9,0,0,1-15.73,3.2,9.492,9.492,0,0,1,.79-3.915,11.152,11.152,0,0,1,1.78-2.918,18.634,18.634,0,0,1,7.97-6.264,35.743,35.743,0,0,1,4.98-1.637,16.633,16.633,0,0,1,3.7-.5,5.967,5.967,0,0,1,2.28.143,7.646,7.646,0,0,1,1.64.783,2.517,2.517,0,0,1,1.06,1.5,4.814,4.814,0,0,1-.42,4.413h0ZM4537.9,752.9c0.19-1.85.34-3.249,0.43-4.2,0-.854-0.02-1.78-0.07-2.776a11.987,11.987,0,0,0-.5-2.918,5.825,5.825,0,0,0-1.49-2.492,5.137,5.137,0,0,0-2.92-1.352,5.822,5.822,0,0,0-2.85.142,9.593,9.593,0,0,0-2.63,1.21,7.986,7.986,0,0,0-2.64,2.919,28.837,28.837,0,0,0-1.42,2.633,12.667,12.667,0,0,0-1,3.63c0,0.192-.04.761-0.14,1.709a22.363,22.363,0,0,0,0,3.487,16.363,16.363,0,0,0,.93,4.271,11.659,11.659,0,0,0,2.49,4.057,8.671,8.671,0,0,0,3.56,2.278q-0.57,7.688-1,16.443t-0.36,16.8q0.075,8.044.72,14.52c0.42,4.32,1.16,7.521,2.2,9.61a1.3,1.3,0,0,0,1,.854,1.548,1.548,0,0,0,1.28-.285l0.14-.142a3.642,3.642,0,0,0,1.57-3.7c-0.19-1.232-.33-2.442-0.43-3.63s-0.19-2.442-.28-3.772c0-.57.02-1.731,0.07-3.488s0.14-3.773.28-6.05,0.36-4.649.64-7.118,0.67-4.769,1.14-6.9a20.113,20.113,0,0,1,1.85-5.267,3.635,3.635,0,0,1,2.71-2.206q0.855,0.142,1.56,1.85a27.509,27.509,0,0,1,1.07,5.054,60.741,60.741,0,0,1,.22,10.179,54.853,54.853,0,0,0,.56,11.887,24.693,24.693,0,0,0,2.21,6.975,7.588,7.588,0,0,0,3.06,3.346,12.3,12.3,0,0,0,3.28,1.138,4.084,4.084,0,0,0,3.98-1.708,27.179,27.179,0,0,0,3.42-5.125,52.675,52.675,0,0,0,2.77-6.264q1.215-3.273,1.93-5.267c0.76-1.993,1.44-3.748,2.06-5.267a23.36,23.36,0,0,1,1.64-3.417,3.714,3.714,0,0,0,.43-2.989v-0.427a0.531,0.531,0,0,0-.5-0.427,0.882,0.882,0,0,0-.64.284,47.884,47.884,0,0,0-3.56,7.759q-1.71,4.627-3.49,8.9a58.37,58.37,0,0,1-3.7,7.474c-1.28,2.135-2.64,3.252-4.06,3.346q-1.275.142-1.92-1.638a22.265,22.265,0,0,1-1-4.769,58.581,58.581,0,0,1-.35-6.9q0-3.914.28-7.9a47.226,47.226,0,0,0-.43-9.965,20.9,20.9,0,0,0-.92-3.7,13.5,13.5,0,0,0-1.64-3.275,7.852,7.852,0,0,0-2.42-2.277,6.515,6.515,0,0,0-3.41-.854,4.711,4.711,0,0,0-4.13,2.491,25.868,25.868,0,0,0-2.71,6.192q0.285-5.265.71-10.178t1-9.182c0.47-.094.93-0.165,1.35-0.214s0.88-.118,1.36-0.213q4.41-.711,9.96-1.566t10.82-1.282a53.374,53.374,0,0,1,9.54,0q4.26,0.428,6.12,2.278a3.816,3.816,0,0,1,1.14,3.274q0,1.283.99,1.282h0.15a0.949,0.949,0,0,0,1.14-1,5.618,5.618,0,0,0-1.86-5.267q-3.84-3.7-15.65-2.847-5.415.287-11.39,1.139t-11.39,1.708a11.937,11.937,0,0,1-2,.285,9.192,9.192,0,0,0,.22-1.566q0.075-.995.21-1.993a17.393,17.393,0,0,0,.14-2.278Q4537.615,755.675,4537.9,752.9Zm-12.24,5.268a17.827,17.827,0,0,1-.71-3.773,21.806,21.806,0,0,1,.14-4.271V749.98a16.389,16.389,0,0,1,.71-2.705,21.024,21.024,0,0,1,.86-1.993A15.682,15.682,0,0,1,4527.8,744a3.726,3.726,0,0,1,.99-0.712,1.217,1.217,0,0,1,1.14,0q0.72,0.288.78,2.919c0.05,1.757.03,3.63-.07,5.623q-0.135,3.559-.57,7.972c0,0.476-.02,1-0.07,1.566s-0.12,1.188-.21,1.85a6.281,6.281,0,0,1-1.99-1.566A8.147,8.147,0,0,1,4525.66,758.166Zm88.97,32.956a0.515,0.515,0,0,0-.5-0.427,0.9,0.9,0,0,0-.64.284,47.924,47.924,0,0,0-3.55,7.759q-1.71,4.627-3.49,8.9a58.37,58.37,0,0,1-3.7,7.474q-1.935,3.2-4.2,3.346c-0.86.095-1.52-.57-2-1.993a24.92,24.92,0,0,1-.99-5.624c-0.19-2.324-.27-4.933-0.22-7.829s0.17-5.788.36-8.684,0.38-5.6.57-8.115,0.38-4.577.57-6.192a6.376,6.376,0,0,0-1.99-4.983,4.464,4.464,0,0,0-2-1.139l-1.14-.284a1.541,1.541,0,0,0-1.42.427,2.515,2.515,0,0,0-.71,1.423c-0.1,1.615-.17,3.2-0.22,4.769s-0.07,3.061-.07,4.485a11.9,11.9,0,0,0-2.63-4.769,5.836,5.836,0,0,0-3.92-2.065,5.755,5.755,0,0,0-4.27,1.851q-2.13,2-3.84,7.118a43.52,43.52,0,0,0-2.14,12.1,40.738,40.738,0,0,0,1,10.535,24.026,24.026,0,0,0,3.13,7.687q1.995,2.99,4.27,3.417a3.851,3.851,0,0,0,3.35-.712,10.448,10.448,0,0,0,2.63-3.061,21.315,21.315,0,0,0,1.93-4.413,38.323,38.323,0,0,0,1.21-5.053,34.894,34.894,0,0,0,1.49,7.046,16.908,16.908,0,0,0,1.99,4.129,6.59,6.59,0,0,0,2.35,2.135,11.334,11.334,0,0,0,2.56.925,4.092,4.092,0,0,0,3.99-1.708,27.179,27.179,0,0,0,3.42-5.125,46.616,46.616,0,0,0,2.7-6.264q1.14-3.273,1.85-5.267,1.14-2.989,2.14-5.267a26.869,26.869,0,0,1,1.71-3.417,6.429,6.429,0,0,0,.42-2.989v-0.427Zm-34.66,24.841a27.955,27.955,0,0,1-.93-4.911,41.993,41.993,0,0,1-.28-7.118q0.285-7.687.85-12.029a37.995,37.995,0,0,1,1.28-6.478q0.72-2.562,1.71-3.132,1.425-.853,2.64.712a14.669,14.669,0,0,1,2.06,3.915,28.294,28.294,0,0,1,1.28,4.7q0.435,2.349.57,2.918a3.866,3.866,0,0,0,.14,1.139c-0.09,1.9-.31,4.106-0.64,6.62a67.1,67.1,0,0,1-1.35,7.26,23.719,23.719,0,0,1-2.21,5.908q-1.35,2.423-3.06,2.562C4581.08,818.123,4580.4,817.436,4579.97,815.963Zm78.79-24.841a0.515,0.515,0,0,0-.5-0.427,0.9,0.9,0,0,0-.64.284,48.755,48.755,0,0,0-3.56,7.759q-1.7,4.627-3.41,8.968a47.835,47.835,0,0,1-3.63,7.474q-1.92,3.134-4.2,3.275a2.057,2.057,0,0,1-1.92-1.5,13.506,13.506,0,0,1-.86-4.057,55.237,55.237,0,0,1-.14-5.766q0.075-3.2.21-6.62a47.95,47.95,0,0,0-.42-9.965,19.275,19.275,0,0,0-.93-3.63,13.512,13.512,0,0,0-1.64-3.2,7.856,7.856,0,0,0-2.42-2.278,6.5,6.5,0,0,0-3.41-.854q-2.565-.139-4.27,2.563a22.773,22.773,0,0,0-2.71,6.69c0.19-1.8.36-3.438,0.5-4.911s0.26-2.727.36-3.772a5.672,5.672,0,0,0,.07-1.5,3.607,3.607,0,0,0-.5-1.5,8.141,8.141,0,0,0-2.85-2.847,4.38,4.38,0,0,0-1.56-.57,1.585,1.585,0,0,0-1.85,1,1.125,1.125,0,0,0-.29.854q-0.285,6.406-.36,11.745c-0.04,3.559-.07,6.762-0.07,9.609q0,8.4.64,15.09t2.35,9.823c0.57,1.043,1.28,1.232,2.14.569l0.28-.142a3.9,3.9,0,0,0,1.43-3.7c-0.1-.662-0.17-1.328-0.22-1.993s-0.12-1.374-.21-2.135c0-.663.02-1.873,0.07-3.63s0.14-3.773.29-6.05,0.35-4.627.64-7.047a62.125,62.125,0,0,1,1.14-6.762,19.454,19.454,0,0,1,1.85-5.2,3.625,3.625,0,0,1,2.7-2.207q0.99,0.144,1.71,1.851a17.693,17.693,0,0,1,1.07,5.054,77.572,77.572,0,0,1,.07,10.178,45.018,45.018,0,0,0,.5,10.464,17.266,17.266,0,0,0,2.13,5.979,6.977,6.977,0,0,0,3.06,2.776,8.54,8.54,0,0,0,3.28.711,5.277,5.277,0,0,0,3.98-2.135,28.109,28.109,0,0,0,3.42-5.054,46.538,46.538,0,0,0,2.7-6.05q1.14-3.129,1.85-5.125,1.14-2.989,2.14-5.267a26.869,26.869,0,0,1,1.71-3.417,6.433,6.433,0,0,0,.43-2.989,0.563,0.563,0,0,0-.15-0.427h0Zm7.19-38.722q0.21-2.418.21-3.7a17.851,17.851,0,0,0,.08-2.776,12.487,12.487,0,0,0-.5-2.918,5.946,5.946,0,0,0-1.5-2.492,5.076,5.076,0,0,0-2.92-1.352,5.776,5.776,0,0,0-2.84.142,9.77,9.77,0,0,0-2.64,1.21,8.054,8.054,0,0,0-2.63,2.919,12.635,12.635,0,0,0-2.42,6.263q0,0.288-.21,1.709a13.454,13.454,0,0,0,0,3.487,18.4,18.4,0,0,0,.99,4.271,11.965,11.965,0,0,0,2.49,4.057,8.735,8.735,0,0,0,3.56,2.278q-0.57,7.688-.99,16.443-0.435,8.754-.43,16.8a135.056,135.056,0,0,0,.71,14.52c0.48,4.32,1.23,7.521,2.28,9.61a1.3,1.3,0,0,0,1,.854,1.548,1.548,0,0,0,1.28-.285l0.14-.142a3.74,3.74,0,0,0,1.42-3.7,30.818,30.818,0,0,1-.35-3.7c-0.05-1.232-.12-2.513-0.22-3.844v-2.277q0-1.566.15-3.559c0.18,3.986.97,7,2.34,9.039a15.154,15.154,0,0,0,4.35,4.485,13.2,13.2,0,0,0,5.83,1.85,5.6,5.6,0,0,0,4.2-2.135,23.715,23.715,0,0,0,3.42-5.054,44.517,44.517,0,0,0,2.56-6.05c0.71-2.086,1.31-3.795,1.78-5.125q1.14-2.989,2.14-5.267a26.869,26.869,0,0,1,1.71-3.417,5.18,5.18,0,0,0,.42-2.989v-0.427a0.515,0.515,0,0,0-.5-0.427,0.9,0.9,0,0,0-.64.284,48.755,48.755,0,0,0-3.56,7.759c-1.13,3.085-2.3,6.05-3.48,8.9a58.37,58.37,0,0,1-3.7,7.474q-1.935,3.2-4.06,3.346a4.632,4.632,0,0,1-2.14-.855,6.35,6.35,0,0,1-1.56-2.206,12.226,12.226,0,0,1-.86-4.484,7.148,7.148,0,0,0-1.99-4.841,13.714,13.714,0,0,0-2.85-2.135,14.345,14.345,0,0,0,2.14-1.637q0.99-.924,1.71-1.637c0.47-.57.94-1.139,1.42-1.709a17.579,17.579,0,0,0,1.71-2.42,20.861,20.861,0,0,0,2.7-6.406,19.536,19.536,0,0,0,.64-4.413,11.337,11.337,0,0,0-.57-4.128,6.439,6.439,0,0,0-2.2-3.061,7.284,7.284,0,0,0-4.13-1.352,4.431,4.431,0,0,0-4.06,2.348,21.288,21.288,0,0,0-2.63,6.193q0.7-10.817,1.71-19.218,0.705-.141,1.35-0.214t1.35-.213q4.41-.711,9.97-1.566t10.82-1.282a53.258,53.258,0,0,1,9.53,0q4.275,0.428,6.12,2.278a3.967,3.967,0,0,1,1.14,3.274,1.03,1.03,0,0,0,1,1.282h0.14a1.155,1.155,0,0,0,1.14-1,5.9,5.9,0,0,0-1.85-5.267q-3.84-3.7-15.66-2.847-5.415.287-11.39,1.139t-11.39,1.708a11.86,11.86,0,0,1-1.99.285c0.09-.663.17-1.375,0.21-2.136s0.12-1.517.22-2.278c0.09-.854.19-1.659,0.28-2.42C4665.64,755.628,4665.81,754.015,4665.95,752.4Zm-12.38,5.766a20.5,20.5,0,0,1-.64-3.773,21.058,21.058,0,0,1,.14-4.271V749.98a12.535,12.535,0,0,1,1.56-4.7,15.682,15.682,0,0,1,1.14-1.281,3.949,3.949,0,0,1,1-.712,1.217,1.217,0,0,1,1.14,0c0.38,0.192.61,1.164,0.71,2.919s0.09,3.63,0,5.623q-0.15,3.559-.57,7.972a7.639,7.639,0,0,0-.14,1.566,13.863,13.863,0,0,1-.14,1.85,5.171,5.171,0,0,1-1.07-.711c-0.34-.285-0.69-0.57-1.07-0.855A7.6,7.6,0,0,1,4653.57,758.166Zm16.72,24.272a8.4,8.4,0,0,1,0,3.132,38.731,38.731,0,0,1-1.56,6.121q-0.435,1.141-.93,2.491a25.5,25.5,0,0,1-1.21,2.776q-0.57,1-1.14,1.993c-0.38.57-.78,1.164-1.21,1.78a12.279,12.279,0,0,1-1.49,1.779q0.135-3.416.57-7.118a49.015,49.015,0,0,1,1.21-6.762,23.316,23.316,0,0,1,1.92-5.2q1.14-2.135,2.7-2.277a1.475,1.475,0,0,1,1.14,1.281h0Zm59.08,66.624a26.584,26.584,0,0,0,3.42-4.271,251.957,251.957,0,0,0,45.69,8.4c0.1,0,.55.022,1.36,0.071s1.85,0.071,3.13.071,2.75-.049,4.41-0.142a47.243,47.243,0,0,0,5.05-.569q14.67-2.563,16.66-13.524a0.948,0.948,0,0,0-.85-1.282,1.042,1.042,0,0,0-1.43.854q-1.425,9.253-14.8,11.674a26.583,26.583,0,0,1-4.91.64q-2.355.071-4.2,0.072c-1.43,0-2.8-.049-4.13-0.143h-0.14a252.847,252.847,0,0,1-44.56-8.114q5.55-8.969,6.4-21.781a3.563,3.563,0,0,0,1.5.5c0.52,0.047,1.02.071,1.49,0.071a5.839,5.839,0,0,0,3.99-2.277,28.144,28.144,0,0,0,3.42-5.054,48.6,48.6,0,0,0,2.7-5.979q1.14-3.06,1.85-5.054,1.14-2.989,2.14-5.267a26.869,26.869,0,0,1,1.71-3.417,6.429,6.429,0,0,0,.42-2.989,0.6,0.6,0,0,0-.14-0.427,0.523,0.523,0,0,0-.5-0.427,0.882,0.882,0,0,0-.64.284,49.672,49.672,0,0,0-3.56,7.688q-1.71,4.557-3.49,8.826a53.1,53.1,0,0,1-3.7,7.4q-1.92,3.132-4.05,3.559c-1.14.191-1.93-.855-2.35-3.132a54.457,54.457,0,0,1-.79-8.257,93.345,93.345,0,0,1,.29-10.179c0.28-3.559.57-6.524,0.85-8.9a5.508,5.508,0,0,0-1.42-4.7,6.1,6.1,0,0,0-2.14-1.424,5.079,5.079,0,0,0-1.28-.427,1.231,1.231,0,0,0-1.35.285,2.329,2.329,0,0,0-.78,1.424q-0.285,4.13-.5,7.545t-0.21,6.406q-0.3,2.99-.79,6.548a56.2,56.2,0,0,1-1.35,6.762,23.137,23.137,0,0,1-2.06,5.339,3.845,3.845,0,0,1-2.92,2.277c-1.05,0-1.78-.9-2.21-2.7a40.265,40.265,0,0,1-.92-5.552,27.217,27.217,0,0,1-.29-4.058v-3.772c0-1.232.05-2.467,0.14-3.7q0.15-4.982.64-8.9,0.51-3.913.79-6.619c0-.474-0.03-0.973-0.07-1.5a3.836,3.836,0,0,0-.36-1.353,10.206,10.206,0,0,0-1.66-1.993,5.189,5.189,0,0,0-1.53-1,4.679,4.679,0,0,0-1.46-.57,2.017,2.017,0,0,0-1.89,1,1.9,1.9,0,0,0-.15.854q-0.285,3.276-.36,6.762t-0.07,6.335v6.691a58.069,58.069,0,0,0,.88,10.677,29.942,29.942,0,0,0,2.4,7.687,7.058,7.058,0,0,0,4.98,4.271,4.467,4.467,0,0,0,3.13-.57,7.561,7.561,0,0,0,2.49-2.562,19.9,19.9,0,0,0,1.85-3.915q0.78-2.205,1.35-4.484c0.1,1.33.17,3.181,0.22,5.552a62.569,62.569,0,0,1-.43,7.972,63.48,63.48,0,0,1-1.78,9.253,36.794,36.794,0,0,1-3.98,9.4q-25.635-7.4-43.14-10.25-22.635-3.559-31.18,1.281a8.912,8.912,0,0,0-4.84,6.122,7.731,7.731,0,0,1-.21,1,6.35,6.35,0,0,0-.07,2.136,17.076,17.076,0,0,0,.64,2.918,11.011,11.011,0,0,0,1.78,3.345q3.555,5.126,12.38,8.4,8.685,3.273,23.35,4.413a10.956,10.956,0,0,0,1.99.142,22.839,22.839,0,0,0,2.71.142h3.99q21.495,0.141,33.45-11.815h0Zm-57.87,6.975a55.952,55.952,0,0,1-8.97-2.847,27.132,27.132,0,0,1-5.83-3.274,17.041,17.041,0,0,1-3.35-3.274,9.271,9.271,0,0,1-1.99-4.556,11.55,11.55,0,0,1,0-2.705,7.509,7.509,0,0,1,3.27-4.128,21.164,21.164,0,0,1,6.76-2.349q4.485-.927,12.6.071,9.54,1.139,19.58,3.132t18.72,3.986q4.125,0.995,7.83,1.851,3.69,0.854,6.69,1.566a33.961,33.961,0,0,1-12.1,10.534q-7.83,4.27-20.36,4.556c-1.33,0-2.59-.025-3.77-0.072s-2.26-.12-3.21-0.213c-1.04-.1-2.08-0.191-3.13-0.285A94.287,94.287,0,0,1,4671.5,856.037Zm95.31-72.176a33.087,33.087,0,0,0-3.06,8.969,65.781,65.781,0,0,0-1.14,9.324,72.652,72.652,0,0,0,0,7.83q0.21,3.346.36,4.2c0.09,0.569.26,1.33,0.49,2.278a9.541,9.541,0,0,0,1.21,2.775,11.307,11.307,0,0,0,2.28,2.563,7.684,7.684,0,0,0,3.42,1.637q1.995,0.567,3.27-1.566a18.2,18.2,0,0,0,2-4.982,50.323,50.323,0,0,0,1.28-7.545,33.148,33.148,0,0,0-.71-10.037,71.347,71.347,0,0,0-2.28-8.185,21.962,21.962,0,0,0,5.76-.712,24.746,24.746,0,0,0,4.63-1.708,12.032,12.032,0,0,0,3.2-2.207,4.21,4.21,0,0,0,1.36-2.349,1.935,1.935,0,0,0-.15-1.423,0.643,0.643,0,0,0-.71-0.143,4.531,4.531,0,0,0-1.14.854,14.919,14.919,0,0,1-3.7,2.278,22.141,22.141,0,0,1-3.91,1.281c-1.29.285-2.52,0.5-3.71,0.641a24.8,24.8,0,0,1-2.77.213,34.992,34.992,0,0,0-.78-3.7c-0.34-1.232-.88-1.944-1.64-2.135a3.063,3.063,0,0,0-3.56,1.85h0Zm5.91,29.469c-0.14,1.33-.34,2.562-0.57,3.7s-0.45,2.113-.64,2.918a1.835,1.835,0,0,1-.71,1.353c-0.57.189-1.17-.594-1.78-2.349a21.471,21.471,0,0,1-.64-7.9,50.611,50.611,0,0,1,.64-5.623q0.495-3.06.92-5.766,0.57-3.129,1.14-6.121a12.591,12.591,0,0,1,.85,2.847c0.29,1.33.55,2.8,0.79,4.413a41.334,41.334,0,0,1,.42,4.769,34.7,34.7,0,0,1-.07,4.057C4772.98,810.767,4772.86,812,4772.72,813.33Zm59.43-22.208a0.351,0.351,0,0,0-.36-0.427,0.9,0.9,0,0,0-.64.284,47.924,47.924,0,0,0-3.55,7.759q-1.71,4.627-3.49,8.9a58.37,58.37,0,0,1-3.7,7.474q-1.935,3.2-4.2,3.346c-0.86.095-1.52-.57-2-1.993a24.92,24.92,0,0,1-.99-5.624c-0.19-2.324-.27-4.933-0.22-7.829s0.17-5.788.36-8.684,0.38-5.6.57-8.115,0.38-4.577.57-6.192a5.5,5.5,0,0,0-2.85-5.552,16.131,16.131,0,0,0-1.56-.712,2.476,2.476,0,0,0-.72-0.142,1.719,1.719,0,0,0-1.49.427,1.816,1.816,0,0,0-.64,1.423q-0.285,6.123-.36,11.1t-0.07,9.111q-0.135,2.85-.57,6.62a56.848,56.848,0,0,1-1.28,7.26,23.719,23.719,0,0,1-2.21,5.908q-1.35,2.423-3.06,2.562c-1.04,0-1.78-.9-2.2-2.7a41.842,41.842,0,0,1-.93-5.552,28.623,28.623,0,0,1-.28-4.058v-3.772c0-1.232.04-2.467,0.14-3.7q0.135-4.982.57-8.9t0.71-6.619a5.279,5.279,0,0,0,.07-1.5,2.584,2.584,0,0,0-.5-1.353,7.553,7.553,0,0,0-1.51-1.993,5.32,5.32,0,0,0-1.53-1,4.679,4.679,0,0,0-1.46-.57,2.033,2.033,0,0,0-1.9,1,2.22,2.22,0,0,0-.29.854q-0.285,3.276-.28,6.762v13.026a59.075,59.075,0,0,0,.86,10.677,30.7,30.7,0,0,0,2.37,7.687,7,7,0,0,0,4.95,4.271,3.893,3.893,0,0,0,3.37-.712,10.523,10.523,0,0,0,2.66-3.061,20.438,20.438,0,0,0,1.93-4.484,41.725,41.725,0,0,0,1.23-4.982,34.894,34.894,0,0,0,1.49,7.046,16.908,16.908,0,0,0,1.99,4.129,6.59,6.59,0,0,0,2.35,2.135,11.334,11.334,0,0,0,2.56.925,4.092,4.092,0,0,0,3.99-1.708,27.179,27.179,0,0,0,3.42-5.125,46.616,46.616,0,0,0,2.7-6.264q1.14-3.273,1.85-5.267,1.14-2.989,2.14-5.267a26.869,26.869,0,0,1,1.71-3.417,6.429,6.429,0,0,0,.42-2.989,0.6,0.6,0,0,0-.14-0.427h0Zm11.9,13.666q0.36,6.265.81,9.4c0.38,2.469.78,3.939,1.17,4.413,0.39,0.569.73,0.334,1.02-.712a27.279,27.279,0,0,0,.74-4.413q0.285-2.845.44-6.477t0.22-6.762c0.05-2.087.07-3.866,0.07-5.339v-2.349a123.651,123.651,0,0,1,.64-12.385q0.645-6.406,1.5-12.172t1.63-10.321c0.52-3.036.93-5.36,1.21-6.975s0.55-3.012.79-4.2a16.732,16.732,0,0,0,.35-3.132,3.887,3.887,0,0,0-.64-2.277,5.261,5.261,0,0,0-2.35-1.637,2.07,2.07,0,0,0-2.78.925,16.289,16.289,0,0,0-1.82,3.772,41.747,41.747,0,0,0-1.17,5.979,148.915,148.915,0,0,0-1.91,18.792q-0.285,8.827-.29,18.222Q4843.68,798.527,4844.05,804.788Zm4.68,19.219a11.171,11.171,0,0,1,.22,2.42,4.755,4.755,0,0,1-.86,2.277,1.314,1.314,0,0,1-1.85.427,4.817,4.817,0,0,1-.99-1,5.089,5.089,0,0,1-.72-1.353,4.724,4.724,0,0,1-.14-2.064c0.29-1.615.81-2.54,1.57-2.776a1.706,1.706,0,0,1,1.85.356A3.362,3.362,0,0,1,4848.73,824.007Z" transform="translate(-4395.41 -735.344)"/>
</svg>
